# xmcd
#
# Track frame offsets: 
#        150
#        11707
#        24923
#        38431
#        56272
#        70576
#        88040
#        104349
#        115506
#        130616
#        141559
#        153351
#        173986
#        188077
#
# Disc length: 2678 seconds
#
# Revision: 0
# Processed by: cddbd v1.5.2PL0 Copyright (c) Steve Scherf et al.
# Submitted via: ExactAudioCopy v1.3
#
DISCID=a80a740e
DTITLE=Carolina Chocolate Drops - Genuine Negro Jig
DYEAR=2010
DGENRE=Blues
TTITLE0=Peace Behind the Bridge
TTITLE1=Trouble in Your Mind
TTITLE2=Your Baby Ain't Sweet Like Mine
TTITLE3=Hit 'Em up Style
TTITLE4=Cornbread and Butterbeans
TTITLE5=Snowden's Jig (Genuine Negro Jig)
TTITLE6=Why Don't You Do Right?
TTITLE7=Cindy Gal
TTITLE8=Kissin' and Cussin'
TTITLE9=Sandy Boys
TTITLE10=Reynadine
TTITLE11=Trampled Rose
TTITLE12=Memphis Shakedown
TTITLE13=City of Refuge
EXTD=
EXTT0=
EXTT1=
EXTT2=
EXTT3=
EXTT4=
EXTT5=
EXTT6=
EXTT7=
EXTT8=
EXTT9=
EXTT10=
EXTT11=
EXTT12=
EXTT13=
PLAYORDER=
